#!OML:ASF X:\für Bonn\!DataBase\2005_08_11_Bastian_Final\c3d\Bastian.ASF
:FULLY-SPECIFIED
:DEGREES
216
root -21.4981 17.6809 0.519309 84.3917 -85.0091 -89.6998
lowerback 6.86555 0.781027 -2.59128
upperback 5.07213 0.738235 -2.08058
thorax 1.37881 0.259106 -0.731603
lowerneck -4.31549 -0.144843 -3.4151
upperneck -13.2406 0.45783 10.6914
head -3.21982 -0.190625 3.83992
rclavicle 1.2921e-014 -1.74931e-014
rhumerus -44.8522 19.7242 -96.0622
rradius 59.8181
rwrist 19.7702
rhand -18.2598 0.873223
rfingers 7.12502
rthumb 8.01959 -28.9546
lclavicle 1.2921e-014 -1.74931e-014
lhumerus -16.1474 -12.9468 85.0352
lradius 32.0891
lwrist 22.7891
lhand -12.7377 -10.4642
lfingers 7.12502
lthumb 13.3461 19.0883
rfemur -4.31936 13.5465 23.7594
rtibia 34.8398
rfoot -17.2268 2.70469
rtoes -11.5073
lfemur -8.93066 -7.19803 -14.809
ltibia 25.9124
lfoot -9.95863 -24.0396
ltoes -26.2764
217
root -21.4822 17.6782 0.492339 72.3208 -84.9937 -77.6326
lowerback 6.9004 0.688344 -2.6468
upperback 5.09327 0.612645 -2.07517
thorax 1.38172 0.195175 -0.688227
lowerneck -4.14835 0.0409051 -3.57644
upperneck -13.2897 0.71626 10.5793
head -3.28163 -0.0514344 3.82947
rclavicle 9.14409e-015 0
rhumerus -45.0536 16.5602 -95.2053
rradius 57.767
rwrist 18.86
rhand -18.4356 0.944537
rfingers 7.12502
rthumb 7.84995 -28.8897
lclavicle 9.14409e-015 0
lhumerus -16.1852 -13.1266 85.2866
lradius 32.9059
lwrist 22.8574
lhand -12.6951 -10.5768
lfingers 7.12502
lthumb 13.3871 18.9731
rfemur -4.28909 13.8935 23.7312
rtibia 34.8382
rfoot -17.4491 2.98456
rtoes -11.9481
lfemur -9.17602 -7.81184 -14.8976
ltibia 25.9679
lfoot -9.94314 -24.4516
ltoes -26.4685
218
root -21.4661 17.6743 0.46486 60.6626 -84.7847 -65.9798
lowerback 6.94795 0.607713 -2.73661
upperback 5.11157 0.500585 -2.06226
thorax 1.37455 0.137094 -0.61873
lowerneck -4.0042 0.217743 -3.70031
upperneck -13.2893 0.956261 10.4372
head -3.32381 0.0805725 3.80229
rclavicle -2.5842e-015 1.27222e-014
rhumerus -45.3398 13.7016 -94.2975
rradius 55.8801
rwrist 17.5092
rhand -18.4625 0.963788
rfingers 7.12502
rthumb 7.82395 -28.8714
lclavicle -2.5842e-015 1.27222e-014
lhumerus -16.26 -13.3581 85.5729
lradius 33.7192
lwrist 22.9247
lhand -12.6541 -10.6197
lfingers 7.12502
lthumb 13.4266 18.9276
rfemur -4.2419 14.3065 23.6862
rtibia 34.8361
rfoot -17.6609 3.24274
rtoes -12.0989
lfemur -9.42026 -8.43657 -15.01
ltibia 26.0219
lfoot -9.89375 -24.8898
ltoes -26.5098
219
root -21.4499 17.6707 0.436926 50.1394 -84.3859 -55.4593
lowerback 6.98646 0.518672 -2.85253
upperback 5.13719 0.376513 -2.03366
thorax 1.38033 0.0719125 -0.517626
lowerneck -3.92691 0.414698 -3.84033
upperneck -13.2449 1.21999 10.2894
head -3.34356 0.228248 3.77479
rclavicle 2.78299e-015 3.18055e-015
rhumerus -45.7085 11.2984 -93.4284
rradius 54.1382
rwrist 15.635
rhand -18.3693 0.773065
rfingers 7.12502
rthumb 7.91386 -29.0588
lclavicle 2.78299e-015 3.18055e-015
lhumerus -16.3476 -13.5255 85.8774
lradius 34.5084
lwrist 22.9309
lhand -12.6284 -10.6569
lfingers 7.12502
lthumb 13.4514 18.8888
rfemur -4.18133 14.7617 23.6423
rtibia 34.8315
rfoot -17.8596 3.46797
rtoes -12.0186
lfemur -9.67146 -9.07369 -15.1406
ltibia 26.0886
lfoot -9.87551 -25.2793
ltoes -26.6805
220
root -21.4328 17.6654 0.408387 41.3829 -83.8153 -46.7134
lowerback 7.05342 0.435939 -2.93709
upperback 5.15303 0.260948 -2.01057
thorax 1.36086 0.0122339 -0.440232
lowerneck -3.84078 0.613864 -3.95718
upperneck -13.2183 1.48625 10.1389
head -3.37024 0.375142 3.74234
rclavicle 1.51076e-014 4.77083e-015
rhumerus -46.1485 9.2785 -92.6375
rradius 52.5525
rwrist 13.2512
rhand -18.1548 0.344082
rfingers 7.12502
rthumb 8.12097 -29.4799
lclavicle 1.51076e-014 4.77083e-015
lhumerus -16.4726 -13.7576 86.1715
lradius 35.2752
lwrist 22.9365
lhand -12.5614 -10.6324
lfingers 7.12502
lthumb 13.516 18.909
rfemur -4.10383 15.249 23.6335
rtibia 34.8359
rfoot -18.0504 3.6754
rtoes -11.8872
lfemur -9.92792 -9.69278 -15.2496
ltibia 26.1681
lfoot -9.88195 -25.6819
ltoes -26.9211
221
root -21.4155 17.6588 0.37912 34.2629 -83.1347 -39.5978
lowerback 7.11592 0.362381 -3.04245
upperback 5.16599 0.15673 -1.97375
thorax 1.34114 -0.0423676 -0.337524
lowerneck -3.68035 0.81864 -4.13571
upperneck -13.2982 1.76688 10.0113
head -3.44244 0.525993 3.72766
rclavicle 1.39149e-014 6.36111e-015
rhumerus -46.6148 7.60135 -91.8944
rradius 51.04
rwrist 10.5676
rhand -17.8752 -0.294593
rfingers 7.12502
rthumb 8.39079 -30.1079
lclavicle 1.39149e-014 6.36111e-015
lhumerus -16.6202 -14.0295 86.4887
lradius 36.0156
lwrist 22.927
lhand -12.5224 -10.5921
lfingers 7.12502
lthumb 13.5536 18.9468
rfemur -4.01567 15.7707 23.6275
rtibia 34.839
rfoot -18.2444 3.90119
rtoes -11.535
lfemur -10.1978 -10.3263 -15.3586
ltibia 26.2662
lfoot -9.82627 -26.0513
ltoes -26.8963
222
root -21.3977 17.6519 0.349352 28.5457 -82.3641 -33.8957
lowerback 7.19124 0.293787 -3.12169
upperback 5.19248 0.0596265 -1.93702
thorax 1.32875 -0.0931685 -0.249857
lowerneck -3.52917 1.02201 -4.35781
upperneck -13.4372 2.04929 9.91074
head -3.53158 0.676885 3.72875
rclavicle 7.95139e-016 1.59028e-015
rhumerus -47.0716 6.1712 -91.1871
rradius 49.6168
rwrist 7.61401
rhand -17.5033 -1.09894
rfingers 7.12502
rthumb 8.74964 -30.8976
lclavicle 7.95139e-016 1.59028e-015
lhumerus -16.7727 -14.3374 86.7976
lradius 36.7477
lwrist 22.9183
lhand -12.475 -10.5271
lfingers 7.12502
lthumb 13.5993 19.0087
rfemur -3.90474 16.2887 23.6474
rtibia 34.8468
rfoot -18.4519 4.12236
rtoes -11.2116
lfemur -10.4656 -10.928 -15.4614
ltibia 26.3814
lfoot -9.84123 -26.442
ltoes -27.0888
